<svg width="100" height="100" viewBox="0 0 100 100" fill="none" xmlns="http://www.w3.org/2000/svg">
<path fill-rule="evenodd" clip-rule="evenodd" d="M20.6705 49.5679L29.5687 58.4662C31.5887 60.4861 31.5887 63.7611 29.5687 65.7811C27.5488 67.801 24.2738 67.801 22.2538 65.7811L9.6966 53.2238C7.67665 51.2039 7.67665 47.9289 9.69661 45.909C9.73229 45.8733 9.76836 45.8382 9.80482 45.8038L22.2934 33.3153C24.3133 31.2953 27.5883 31.2953 29.6083 33.3153C31.6282 35.3352 31.6282 38.6102 29.6083 40.6302L20.6705 49.5679ZM77.6936 33.3214L90.0833 45.7111C90.1579 45.7776 90.231 45.8466 90.3025 45.9181C92.3225 47.9381 92.3225 51.2131 90.3025 53.233L77.7453 65.7902C75.7253 67.8102 72.4503 67.8102 70.4304 65.7902C68.4104 63.7703 68.4104 60.4953 70.4304 58.4753L79.3241 49.5817L70.3787 40.6363C68.3587 38.6163 68.3587 35.3413 70.3787 33.3214C72.3986 31.3014 75.6736 31.3014 77.6936 33.3214ZM30.0044 50.0027C30.0044 47.146 32.3202 44.8302 35.1769 44.8302H64.832C67.6887 44.8302 70.0044 47.146 70.0044 50.0027C70.0044 52.8593 67.6887 55.1751 64.832 55.1751H35.1769C32.3202 55.1751 30.0044 52.8593 30.0044 50.0027Z" fill="url(#paint0_linear_2693_2241)"/>
<defs>
<linearGradient id="paint0_linear_2693_2241" x1="91.9013" y1="49.4854" x2="8.10823" y2="49.4854" gradientUnits="userSpaceOnUse">
<stop stop-color="white"/>
<stop offset="1" stop-color="#4C94FD"/>
</linearGradient>
</defs>
</svg>
